<svg width="93" height="64" viewBox="0 0 93 64" fill="none" xmlns="http://www.w3.org/2000/svg">
<path d="M23.7422 63.1484C18.3568 63.638 13.7057 62.2917 9.78906 59.1094C6.11719 55.6823 3.66927 51.276 2.44531 45.8906C1.46615 41.2396 1.22135 36.4661 1.71094 31.5703C2.44531 26.4297 4.03646 21.7786 6.48438 17.6172C9.17708 13.2109 12.849 9.41667 17.5 6.23438C22.151 3.05208 28.026 1.09375 35.125 0.359375L37.6953 9.53906C34.0234 10.5182 30.1068 12.2318 25.9453 14.6797C21.7839 17.1276 19.0911 21.2891 17.8672 27.1641L23.375 26.0625C29.0052 25.8177 33.7786 27.4089 37.6953 30.8359C41.8568 34.263 43.9375 38.5469 43.9375 43.6875C43.9375 48.8281 41.9792 53.3568 38.0625 57.2734C34.1458 60.9453 29.3724 62.9036 23.7422 63.1484ZM72.2109 63.1484C66.5807 63.638 61.9297 62.2917 58.2578 59.1094C54.5859 55.6823 52.138 51.276 50.9141 45.8906C49.6901 41.2396 49.4453 36.4661 50.1797 31.5703C50.9141 26.4297 52.5052 21.7786 54.9531 17.6172C57.6458 13.2109 61.3177 9.41667 65.9688 6.23438C70.6198 3.05208 76.3724 1.09375 83.2266 0.359375L86.1641 9.53906C82.4922 10.5182 78.4531 12.2318 74.0469 14.6797C69.8854 17.1276 67.1927 21.2891 65.9688 27.1641C66.9479 26.9193 67.8047 26.7969 68.5391 26.7969C69.5182 26.5521 70.6198 26.3073 71.8438 26.0625C77.474 25.8177 82.2474 27.4089 86.1641 30.8359C90.0807 34.263 92.0391 38.5469 92.0391 43.6875C92.0391 48.8281 90.0807 53.3568 86.1641 57.2734C82.4922 60.9453 77.8411 62.9036 72.2109 63.1484Z" fill="#F47830"/>
</svg>
