<svg width="30" height="133" viewBox="0 0 30 133" fill="none" xmlns="http://www.w3.org/2000/svg">
<path opacity="0.7" d="M27.9036 89.7085C27.0452 89.7085 26.3491 89.0092 26.3491 88.1448C26.3491 87.2824 27.0452 86.5811 27.9036 86.5811C28.7641 86.5811 29.4601 87.2804 29.4601 88.1448C29.4601 89.0092 28.7641 89.7085 27.9036 89.7085Z" fill="white"/>
<path opacity="0.7" d="M27.9036 104.139C27.0452 104.139 26.3491 103.44 26.3491 102.575C26.3491 101.713 27.0452 101.012 27.9036 101.012C28.7641 101.012 29.4601 101.711 29.4601 102.575C29.4601 103.44 28.7641 104.139 27.9036 104.139Z" fill="white"/>
<path opacity="0.7" d="M27.9036 118.569C27.0452 118.569 26.3491 117.87 26.3491 117.006C26.3491 116.143 27.0452 115.442 27.9036 115.442C28.7641 115.442 29.4601 116.141 29.4601 117.006C29.4601 117.87 28.7641 118.569 27.9036 118.569Z" fill="white"/>
<path opacity="0.7" d="M27.9036 133C27.0452 133 26.3491 132.301 26.3491 131.436C26.3491 130.574 27.0452 129.873 27.9036 129.873C28.7641 129.873 29.4601 130.572 29.4601 131.436C29.4601 132.301 28.7641 133 27.9036 133Z" fill="white"/>
<path opacity="0.7" d="M27.9036 46.417C27.0452 46.417 26.3491 45.7177 26.3491 44.8533C26.3491 43.9909 27.0452 43.2896 27.9036 43.2896C28.7641 43.2896 29.4601 43.9889 29.4601 44.8533C29.4601 45.7177 28.7641 46.417 27.9036 46.417Z" fill="white"/>
<path opacity="0.7" d="M27.9036 60.8477C27.0452 60.8477 26.3491 60.1484 26.3491 59.284C26.3491 58.4216 27.0452 57.7202 27.9036 57.7202C28.7641 57.7202 29.4601 58.4195 29.4601 59.284C29.4601 60.1484 28.7641 60.8477 27.9036 60.8477Z" fill="white"/>
<path opacity="0.7" d="M27.9036 75.2779C27.0452 75.2779 26.3491 74.5786 26.3491 73.7141C26.3491 72.8497 27.0452 72.1504 27.9036 72.1504C28.7641 72.1504 29.4601 72.8497 29.4601 73.7141C29.4601 74.5786 28.7641 75.2779 27.9036 75.2779Z" fill="white"/>
<path opacity="0.7" d="M1.55651 89.7085C0.698097 89.7085 0 89.0092 0 88.1448C0 87.2824 0.696068 86.5811 1.55651 86.5811C2.41696 86.5811 3.11303 87.2824 3.11303 88.1448C3.11303 89.0092 2.41493 89.7085 1.55651 89.7085Z" fill="white"/>
<path opacity="0.7" d="M1.55651 104.139C0.698097 104.139 0 103.44 0 102.575C0 101.713 0.696068 101.012 1.55651 101.012C2.41696 101.012 3.11303 101.711 3.11303 102.575C3.11303 103.44 2.41493 104.139 1.55651 104.139Z" fill="white"/>
<path opacity="0.7" d="M1.55651 118.569C0.698097 118.569 0 117.87 0 117.006C0 116.143 0.696068 115.442 1.55651 115.442C2.41696 115.442 3.11303 116.141 3.11303 117.006C3.11303 117.87 2.41493 118.569 1.55651 118.569Z" fill="white"/>
<path opacity="0.7" d="M1.55651 133C0.698097 133 0 132.301 0 131.436C0 130.574 0.696068 129.873 1.55651 129.873C2.41696 129.873 3.11303 130.572 3.11303 131.436C3.11303 132.301 2.41493 133 1.55651 133Z" fill="white"/>
<path opacity="0.7" d="M14.7351 89.7085C13.8767 89.7085 13.1807 89.0092 13.1807 88.1448C13.1807 87.2824 13.8767 86.5811 14.7351 86.5811C15.5956 86.5811 16.2917 87.2804 16.2917 88.1448C16.2917 89.0092 15.5956 89.7085 14.7351 89.7085Z" fill="white"/>
<path opacity="0.7" d="M14.7351 104.139C13.8767 104.139 13.1807 103.44 13.1807 102.575C13.1807 101.713 13.8767 101.012 14.7351 101.012C15.5956 101.012 16.2917 101.711 16.2917 102.575C16.2917 103.44 15.5956 104.139 14.7351 104.139Z" fill="white"/>
<path opacity="0.7" d="M14.7351 118.569C13.8767 118.569 13.1807 117.87 13.1807 117.006C13.1807 116.143 13.8767 115.442 14.7351 115.442C15.5956 115.442 16.2917 116.141 16.2917 117.006C16.2917 117.87 15.5956 118.569 14.7351 118.569Z" fill="white"/>
<path opacity="0.7" d="M14.7351 133C13.8767 133 13.1807 132.301 13.1807 131.436C13.1807 130.574 13.8767 129.873 14.7351 129.873C15.5956 129.873 16.2917 130.572 16.2917 131.436C16.2917 132.301 15.5956 133 14.7351 133Z" fill="white"/>
<path opacity="0.7" d="M1.55448 46.417C0.696068 46.417 0 45.7177 0 44.8533C0 43.9909 0.696068 43.2896 1.55448 43.2896C2.41493 43.2896 3.111 43.9889 3.111 44.8533C3.111 45.7177 2.41493 46.417 1.55448 46.417Z" fill="white"/>
<path opacity="0.7" d="M1.55448 60.8477C0.696068 60.8477 0 60.1484 0 59.284C0 58.4216 0.696068 57.7202 1.55448 57.7202C2.41493 57.7202 3.111 58.4195 3.111 59.284C3.111 60.1484 2.41493 60.8477 1.55448 60.8477Z" fill="white"/>
<path opacity="0.7" d="M1.55448 75.2779C0.696068 75.2779 0 74.5786 0 73.7141C0 72.8497 0.696068 72.1504 1.55448 72.1504C2.41493 72.1504 3.111 72.8497 3.111 73.7141C3.111 74.5786 2.41493 75.2779 1.55448 75.2779Z" fill="white"/>
<path opacity="0.7" d="M14.7351 46.417C13.8767 46.417 13.1807 45.7177 13.1807 44.8533C13.1807 43.9909 13.8767 43.2896 14.7351 43.2896C15.5956 43.2896 16.2917 43.9889 16.2917 44.8533C16.2917 45.7177 15.5956 46.417 14.7351 46.417Z" fill="white"/>
<path opacity="0.7" d="M14.7351 60.8477C13.8767 60.8477 13.1807 60.1484 13.1807 59.284C13.1807 58.4216 13.8767 57.7202 14.7351 57.7202C15.5956 57.7202 16.2917 58.4195 16.2917 59.284C16.2917 60.1484 15.5956 60.8477 14.7351 60.8477Z" fill="white"/>
<path opacity="0.7" d="M14.7351 75.2779C13.8767 75.2779 13.1807 74.5786 13.1807 73.7141C13.1807 72.8497 13.8767 72.1504 14.7351 72.1504C15.5956 72.1504 16.2917 72.8497 16.2917 73.7141C16.2917 74.5786 15.5956 75.2779 14.7351 75.2779Z" fill="white"/>
<path opacity="0.7" d="M27.9036 3.12749C27.0452 3.12749 26.3491 2.42819 26.3491 1.56375C26.3491 0.701341 27.0452 0 27.9036 0C28.7641 0 29.4601 0.699303 29.4601 1.56375C29.4601 2.42615 28.7641 3.12749 27.9036 3.12749Z" fill="white"/>
<path opacity="0.7" d="M27.9036 17.5582C27.0452 17.5582 26.3491 16.8589 26.3491 15.9944C26.3491 15.13 27.0452 14.4307 27.9036 14.4307C28.7641 14.4307 29.4601 15.13 29.4601 15.9944C29.4601 16.8568 28.7641 17.5582 27.9036 17.5582Z" fill="white"/>
<path opacity="0.7" d="M27.9036 31.9864C27.0452 31.9864 26.3491 31.2871 26.3491 30.4226C26.3491 29.5582 27.0452 28.8589 27.9036 28.8589C28.7641 28.8589 29.4601 29.5582 29.4601 30.4226C29.4601 31.2871 28.7641 31.9864 27.9036 31.9864Z" fill="white"/>
<path opacity="0.7" d="M1.55448 3.12749C0.696068 3.12749 0 2.42819 0 1.56375C0 0.701341 0.696068 0 1.55448 0C2.41493 0 3.111 0.699303 3.111 1.56375C3.111 2.42819 2.41493 3.12749 1.55448 3.12749Z" fill="white"/>
<path opacity="0.7" d="M1.55448 17.5582C0.696068 17.5582 0 16.8589 0 15.9944C0 15.13 0.696068 14.4307 1.55448 14.4307C2.41493 14.4307 3.111 15.13 3.111 15.9944C3.111 16.8589 2.41493 17.5582 1.55448 17.5582Z" fill="white"/>
<path opacity="0.7" d="M1.55448 31.9883C0.696068 31.9883 0 31.289 0 30.4246C0 29.5601 0.696068 28.8608 1.55448 28.8608C2.41493 28.8608 3.111 29.5601 3.111 30.4246C3.111 31.287 2.41493 31.9883 1.55448 31.9883Z" fill="white"/>
<path opacity="0.7" d="M14.7351 3.12749C13.8767 3.12749 13.1807 2.42819 13.1807 1.56375C13.1807 0.701341 13.8767 0 14.7351 0C15.5956 0 16.2917 0.699303 16.2917 1.56375C16.2917 2.42615 15.5956 3.12749 14.7351 3.12749Z" fill="white"/>
<path opacity="0.7" d="M14.7351 17.5582C13.8767 17.5582 13.1807 16.8589 13.1807 15.9944C13.1807 15.13 13.8767 14.4307 14.7351 14.4307C15.5956 14.4307 16.2917 15.13 16.2917 15.9944C16.2917 16.8568 15.5956 17.5582 14.7351 17.5582Z" fill="white"/>
<path opacity="0.7" d="M14.7351 31.9883C13.8767 31.9883 13.1807 31.289 13.1807 30.4246C13.1807 29.5601 13.8767 28.8608 14.7351 28.8608C15.5956 28.8608 16.2917 29.5601 16.2917 30.4246C16.2917 31.287 15.5956 31.9883 14.7351 31.9883Z" fill="white"/>
</svg>
